<svg width="236" height="48" viewBox="0 0 236 48" fill="none" xmlns="http://www.w3.org/2000/svg">
<g id="Company Logo - i2_01 1">
<path id="Vector" d="M52.2438 17.3794V30.1219H50.3408V17.3794H52.2438Z" fill="#CD3631" stroke="#CD3631" stroke-width="0.25" stroke-miterlimit="10"/>
<path id="Vector_2" d="M56.9805 17.3794L62.0559 26.9541V17.3794H63.9589V30.1219H61.7356L56.6637 20.5366V30.1219H54.7607V17.3794H56.9817H56.9805Z" fill="#CD3631" stroke="#CD3631" stroke-width="0.25" stroke-miterlimit="10"/>
<path id="Vector_3" d="M66.3828 17.3794H70.5994C71.3456 17.3794 72.0178 17.5483 72.6138 17.8839C73.211 18.2206 73.7179 18.6758 74.1367 19.2507C74.5555 19.8256 74.877 20.499 75.1034 21.2687C75.3299 22.0395 75.4425 22.8572 75.4425 23.7254C75.4425 24.5936 75.324 25.4676 75.0858 26.2478C74.8488 27.028 74.5156 27.7062 74.0898 28.2811C73.6627 28.8559 73.1524 29.3065 72.5587 29.6326C71.965 29.9588 71.3116 30.1219 70.5994 30.1219H66.3828V17.3794ZM68.1638 28.6189H70.1548C70.6569 28.6189 71.1215 28.5098 71.5474 28.2904C71.9733 28.0722 72.3428 27.7543 72.6526 27.3366C72.9635 26.9201 73.2063 26.4086 73.3811 25.8032C73.5559 25.1978 73.6439 24.5115 73.6439 23.7453C73.6439 22.9041 73.5559 22.1779 73.3811 21.5655C73.2063 20.9531 72.9623 20.4486 72.649 20.052C72.3358 19.6555 71.9662 19.361 71.5392 19.1697C71.1133 18.9773 70.651 18.8823 70.1548 18.8823H68.1638V28.6189Z" fill="#CD3631" stroke="#CD3631" stroke-width="0.25" stroke-miterlimit="10"/>
<path id="Vector_4" d="M86.6931 23.7665C86.6931 24.7485 86.584 25.6484 86.367 26.4661C86.1499 27.2827 85.832 27.9878 85.4132 28.5803C84.9943 29.1727 84.4816 29.6315 83.8739 29.9576C83.2661 30.2838 82.5704 30.4469 81.789 30.4469C81.0077 30.4469 80.3131 30.2838 79.7042 29.9576C79.0965 29.6315 78.5838 29.1727 78.1685 28.5803C77.7531 27.9889 77.4375 27.2838 77.2228 26.4661C77.0081 25.6484 76.9014 24.7497 76.9014 23.7665C76.9014 22.7833 77.0093 21.8952 77.2228 21.0775C77.4375 20.2609 77.7531 19.5558 78.1685 18.9633C78.5838 18.372 79.0953 17.9121 79.7042 17.5859C80.3119 17.2598 81.0077 17.0967 81.789 17.0967C82.5704 17.0967 83.265 17.2598 83.8739 17.5859C84.4816 17.9121 84.9955 18.3708 85.4132 18.9633C85.8308 19.5558 86.1488 20.2597 86.367 21.0775C86.584 21.8952 86.6931 22.7915 86.6931 23.7665ZM84.9579 23.7618C84.9579 22.9417 84.877 22.2096 84.7139 21.5643C84.5508 20.9191 84.3267 20.3735 84.0405 19.9265C83.7542 19.4795 83.4198 19.1393 83.0362 18.9035C82.6537 18.6688 82.2396 18.5503 81.7926 18.5503C81.3456 18.5503 80.9302 18.6676 80.5442 18.9035C80.1583 19.1381 79.8251 19.4795 79.5447 19.9265C79.2642 20.3735 79.0413 20.9191 78.8794 21.5643C78.7164 22.2096 78.6354 22.9417 78.6354 23.7618C78.6354 24.5819 78.7164 25.314 78.8794 25.9593C79.0413 26.6045 79.2631 27.1501 79.5447 27.5971C79.8251 28.0441 80.1583 28.3855 80.5442 28.6201C80.9302 28.8548 81.3456 28.9733 81.7926 28.9733C82.2396 28.9733 82.6537 28.856 83.0362 28.6201C83.4187 28.3855 83.7542 28.0441 84.0405 27.5971C84.3267 27.1501 84.5508 26.6045 84.7139 25.9593C84.877 25.314 84.9579 24.5819 84.9579 23.7618Z" fill="#CD3631" stroke="#CD3631" stroke-width="0.25" stroke-miterlimit="10"/>
<path id="Vector_5" d="M90.7749 17.3794L95.6826 26.9541V17.3794H97.5234V30.1219H95.374L90.4687 20.5366V30.1219H88.6279V17.3794H90.7749Z" fill="#CD3631" stroke="#CD3631" stroke-width="0.25" stroke-miterlimit="10"/>
<path id="Vector_6" d="M107.343 17.3794V18.8835H101.287V22.788H106.983V24.2909H101.287V28.6189H107.614V30.1219H99.4463V17.3794H107.343Z" fill="#CD3631" stroke="#CD3631" stroke-width="0.25" stroke-miterlimit="10"/>
<path id="Vector_7" d="M110.974 25.9453C111.004 26.3887 111.098 26.7982 111.259 27.1713C111.419 27.5444 111.627 27.867 111.883 28.1404C112.139 28.4126 112.435 28.6249 112.77 28.7763C113.104 28.9276 113.459 29.0027 113.833 29.0027C114.104 29.0027 114.373 28.9628 114.638 28.8819C114.903 28.8009 115.141 28.6754 115.352 28.5029C115.564 28.3316 115.734 28.1099 115.864 27.8365C115.994 27.5643 116.059 27.2335 116.059 26.8428C116.059 26.4521 115.962 26.1447 115.769 25.8796C115.575 25.6132 115.322 25.3821 115.009 25.1827C114.695 24.9844 114.338 24.8037 113.936 24.643C113.535 24.4811 113.126 24.3168 112.71 24.149C112.294 23.9813 111.886 23.7947 111.484 23.5894C111.083 23.3841 110.725 23.1389 110.412 22.8526C110.097 22.5675 109.845 22.2296 109.652 21.839C109.458 21.4494 109.362 20.9813 109.362 20.4369C109.362 19.8926 109.46 19.4385 109.656 19.0138C109.852 18.5903 110.126 18.2324 110.476 17.9391C110.827 17.647 111.247 17.4217 111.737 17.2634C112.226 17.105 112.763 17.0264 113.35 17.0264C114.111 17.0264 114.758 17.1531 115.289 17.4053C115.821 17.6576 116.257 17.9802 116.598 18.3744C116.94 18.7674 117.193 19.2015 117.36 19.6755C117.525 20.1495 117.621 20.6059 117.645 21.0423H115.706C115.675 20.634 115.595 20.2703 115.465 19.9524C115.335 19.6345 115.162 19.3681 114.949 19.1534C114.734 18.9387 114.485 18.7768 114.201 18.6665C113.918 18.5563 113.609 18.5011 113.277 18.5011C113.029 18.5011 112.787 18.5351 112.547 18.602C112.308 18.6689 112.094 18.7733 111.903 18.9141C111.713 19.0549 111.558 19.2332 111.441 19.4479C111.324 19.6626 111.264 19.9219 111.264 20.2246C111.264 20.6282 111.36 20.9708 111.553 21.2535C111.747 21.5351 111.999 21.7815 112.31 21.9891C112.621 22.198 112.978 22.3822 113.38 22.5441C113.781 22.706 114.193 22.8691 114.613 23.0333C115.033 23.1976 115.444 23.3771 115.846 23.5718C116.248 23.7666 116.604 24.0036 116.915 24.2828C117.226 24.562 117.478 24.8929 117.672 25.2765C117.865 25.6602 117.962 26.1201 117.962 26.6574C117.962 27.2898 117.861 27.8435 117.658 28.3211C117.455 28.7986 117.169 29.1963 116.797 29.5154C116.425 29.8345 115.98 30.075 115.46 30.2369C114.941 30.3977 114.367 30.4786 113.738 30.4786C113.109 30.4786 112.477 30.373 111.912 30.1607C111.347 29.9483 110.855 29.648 110.435 29.2573C110.015 28.8678 109.683 28.3926 109.438 27.8353C109.193 27.2769 109.062 26.648 109.044 25.9488H110.974V25.9453Z" fill="#CD3631" stroke="#CD3631" stroke-width="0.25" stroke-miterlimit="10"/>
<path id="Vector_8" d="M121.695 17.3794V30.1219H119.792V17.3794H121.695Z" fill="#CD3631" stroke="#CD3631" stroke-width="0.25" stroke-miterlimit="10"/>
<path id="Vector_9" d="M129.983 17.3796L134.152 30.122H132.194L130.943 26.3079H126.756C126.563 26.9203 126.354 27.5574 126.13 28.2191C125.906 28.8819 125.699 29.5155 125.505 30.1209H123.529L127.753 17.3784L129.983 17.3796ZM128.85 19.8516L127.246 24.8355H130.445L128.85 19.8516Z" fill="#CD3631" stroke="#CD3631" stroke-width="0.25" stroke-miterlimit="10"/>
<path id="Vector_10" d="M140.078 17.3948V30.1372H138.175V17.3948H140.078Z" fill="white"/>
<path id="Vector_11" d="M144.408 17.3948L149.484 26.9695V17.3948H151.387V30.1372H149.163L144.091 20.5519V30.1372H142.188V17.3948H144.409H144.408Z" fill="white"/>
<path id="Vector_12" d="M153.405 17.3945H157.909C158.707 17.3945 159.424 17.5635 160.062 17.899C160.699 18.2357 161.241 18.691 161.689 19.2658C162.136 19.8407 162.48 20.5141 162.722 21.2838C162.964 22.0546 163.084 22.8723 163.084 23.7405C163.084 24.6087 162.958 25.4828 162.704 26.263C162.451 27.0432 162.095 27.7213 161.639 28.2962C161.183 28.8711 160.637 29.3216 160.004 29.6477C159.369 29.9739 158.671 30.137 157.909 30.137H153.405V17.3945ZM155.308 28.6341H157.434C157.97 28.6341 158.467 28.525 158.923 28.3056C159.378 28.0874 159.771 27.7694 160.103 27.3517C160.435 26.9352 160.695 26.4237 160.881 25.8183C161.068 25.2129 161.161 24.5266 161.161 23.7605C161.161 22.9193 161.068 22.193 160.881 21.5806C160.693 20.9682 160.433 20.4637 160.099 20.0671C159.764 19.6706 159.369 19.3761 158.914 19.1849C158.458 18.9925 157.964 18.8974 157.434 18.8974H155.308V28.6341Z" fill="white"/>
<path id="Vector_13" d="M167.169 17.3945V30.137H165.266V17.3945H167.169Z" fill="white"/>
<path id="Vector_14" d="M170.761 23.5953C170.761 24.5163 170.859 25.3176 171.053 25.9992C171.248 26.6809 171.506 27.2464 171.825 27.6934C172.144 28.1404 172.507 28.4724 172.912 28.6918C173.316 28.91 173.726 29.0191 174.14 29.0191C174.554 29.0191 174.952 28.9217 175.297 28.727C175.643 28.5322 175.946 28.2729 176.206 27.9503C176.467 27.6277 176.682 27.2593 176.854 26.8451C177.025 26.431 177.149 26.0063 177.227 25.5687H179.098C178.98 26.255 178.787 26.8956 178.522 27.4904C178.256 28.0852 177.914 28.6061 177.498 29.052C177.081 29.4978 176.592 29.8486 176.03 30.1067C175.468 30.3636 174.839 30.4927 174.141 30.4927C173.343 30.4927 172.622 30.3367 171.978 30.0234C171.334 29.7113 170.782 29.2585 170.324 28.666C169.866 28.0747 169.514 27.3496 169.269 26.492C169.024 25.6344 168.9 24.6641 168.9 23.5812C168.9 23.0227 168.953 22.4725 169.06 21.9316C169.167 21.3908 169.322 20.8769 169.526 20.3924C169.73 19.9078 169.981 19.4608 170.279 19.0502C170.577 18.6396 170.921 18.2852 171.308 17.9861C171.695 17.6869 172.124 17.4534 172.597 17.2845C173.07 17.1167 173.582 17.0322 174.131 17.0322C174.835 17.0322 175.462 17.1378 176.015 17.3502C176.567 17.5625 177.051 17.8558 177.465 18.2336C177.879 18.6102 178.223 19.056 178.497 19.5699C178.773 20.085 178.987 20.6481 179.14 21.2605H177.234C176.944 20.3325 176.549 19.6415 176.047 19.1874C175.544 18.7334 174.906 18.507 174.131 18.507C173.634 18.507 173.179 18.6442 172.765 18.92C172.351 19.1957 171.997 19.5652 171.701 20.0287C171.405 20.4921 171.175 21.0318 171.01 21.6465C170.844 22.2613 170.761 22.9113 170.761 23.5965V23.5953Z" fill="white"/>
<path id="Vector_15" d="M186.34 17.3948L190.418 30.1372H188.503L187.279 26.7302H183.182C182.993 27.3426 182.148 29.5318 181.959 30.1372H180.026L184.158 17.3948H186.34ZM185.231 19.8668L183.661 25.2566H186.791L185.231 19.8668Z" fill="white"/>
<path id="Vector_16" d="M198.726 17.3945V18.8986H195.463V30.1382H193.784V18.8986H190.515V17.3945H198.727H198.726Z" fill="white"/>
<path id="Vector_17" d="M209.96 23.7816C209.96 24.7636 209.843 25.6635 209.611 26.4812C209.377 27.2978 209.036 28.0029 208.588 28.5954C208.138 29.1879 207.588 29.6466 206.936 29.9728C206.283 30.2989 205.537 30.462 204.698 30.462C203.86 30.462 203.115 30.2989 202.462 29.9728C201.81 29.6466 201.261 29.1879 200.815 28.5954C200.369 28.0041 200.031 27.299 199.8 26.4812C199.57 25.6635 199.454 24.7648 199.454 23.7816C199.454 22.7985 199.569 21.9103 199.8 21.0926C200.03 20.276 200.368 19.5709 200.815 18.9784C201.261 18.3871 201.81 17.9272 202.462 17.6011C203.115 17.2749 203.861 17.1118 204.698 17.1118C205.536 17.1118 206.282 17.2749 206.936 17.6011C207.588 17.9272 208.14 18.3859 208.588 18.9784C209.036 19.5709 209.377 20.2748 209.611 21.0926C209.844 21.9103 209.96 22.8067 209.96 23.7816ZM208.098 23.7769C208.098 22.9568 208.012 22.2248 207.837 21.5795C207.662 20.9342 207.422 20.3886 207.114 19.9416C206.807 19.4946 206.448 19.1544 206.037 18.9186C205.626 18.6839 205.182 18.5654 204.703 18.5654C204.224 18.5654 203.777 18.6828 203.364 18.9186C202.95 19.1532 202.592 19.4946 202.291 19.9416C201.989 20.3886 201.751 20.9342 201.578 21.5795C201.403 22.2248 201.316 22.9568 201.316 23.7769C201.316 24.597 201.403 25.3291 201.578 25.9744C201.752 26.6197 201.989 27.1652 202.291 27.6122C202.592 28.0592 202.95 28.4006 203.364 28.6353C203.779 28.8699 204.224 28.9884 204.703 28.9884C205.182 28.9884 205.626 28.8711 206.037 28.6353C206.448 28.4006 206.807 28.0592 207.114 27.6122C207.422 27.1652 207.662 26.6197 207.837 25.9744C208.012 25.3291 208.098 24.597 208.098 23.7769Z" fill="white"/>
<path id="Vector_18" d="M220.329 21.0842C220.329 21.6626 220.207 22.2176 219.963 22.7479C219.719 23.2794 219.348 23.7264 218.847 24.0889C219.119 24.2027 219.342 24.3529 219.516 24.5382C219.691 24.7236 219.827 24.9266 219.925 25.1495C220.022 25.3712 220.09 25.6082 220.129 25.8605C220.168 26.1127 220.186 26.3673 220.186 26.6231V28.5108C220.186 28.7935 220.225 29.0728 220.301 29.3485C220.378 29.6242 220.482 29.887 220.612 30.1357H218.671C218.599 30.0078 218.543 29.8741 218.498 29.7321C218.454 29.5902 218.419 29.4517 218.396 29.3133C218.373 29.1748 218.357 29.0423 218.351 28.9144C218.346 28.7865 218.342 28.675 218.342 28.5812V26.6031C218.342 26.3814 218.313 26.162 218.254 25.9473C218.195 25.7326 218.1 25.539 217.97 25.3677C217.84 25.1964 217.67 25.058 217.46 24.9536C217.25 24.8491 216.992 24.7975 216.684 24.7975H213.724V30.1345H211.862V17.3921H216.681C217.271 17.3921 217.792 17.5012 218.244 17.7206C218.695 17.9388 219.076 18.2251 219.386 18.5771C219.696 18.9302 219.931 19.3267 220.09 19.7667C220.25 20.2067 220.329 20.6455 220.329 21.0819V21.0842ZM213.724 23.3263H216.685C216.921 23.3263 217.148 23.2676 217.364 23.1503C217.579 23.033 217.77 22.8711 217.935 22.6669C218.1 22.4628 218.231 22.2223 218.326 21.9466C218.419 21.6709 218.468 21.3764 218.468 21.0608C218.468 20.7452 218.423 20.466 218.335 20.1996C218.246 19.9345 218.121 19.7069 217.962 19.5145C217.802 19.3232 217.613 19.1731 217.394 19.0616C217.175 18.9513 216.939 18.895 216.684 18.895H213.723V23.3239L213.724 23.3263Z" fill="white"/>
<path id="Vector_19" d="M3.70898 34.7772V12.7416L22.7927 1.72266L41.8765 12.7416V34.7772L22.7927 45.7962L3.70898 34.7772ZM23.7783 42.9535L39.909 33.6404V18.6442L32.4578 36.7436L27.278 33.1863L23.7783 41.3743V42.9547V42.9535ZM21.8096 42.9535V24.3273L5.67884 15.0142V33.6404L21.8096 42.9535ZM23.7783 36.3635L26.4122 30.2005L31.565 33.7401L39.076 15.494L23.7783 24.3261V36.3635ZM22.7939 22.6214L38.9247 13.3083L22.7939 3.9952L6.66318 13.3083L22.7939 22.6214Z" fill="#CD3631"/>
</g>
</svg>
